<svg class="animated" id="freepik_stories-security" xmlns="http://www.w3.org/2000/svg" viewBox="0 0 500 500" version="1.1" xmlns:xlink="http://www.w3.org/1999/xlink" xmlns:svgjs="http://svgjs.com/svgjs"><style>svg#freepik_stories-security:not(.animated) .animable {opacity: 0;}svg#freepik_stories-security.animated #freepik--Graphics--inject-190 {animation: 1s 1 forwards cubic-bezier(.36,-0.01,.5,1.38) slideLeft,3s Infinite  linear floating;animation-delay: 0s,1s;}svg#freepik_stories-security.animated #freepik--device-2--inject-190 {animation: 1s 1 forwards cubic-bezier(.36,-0.01,.5,1.38) slideUp,3s Infinite  linear floating;animation-delay: 0s,1s;}svg#freepik_stories-security.animated #freepik--device-1--inject-190 {animation: 1s 1 forwards cubic-bezier(.36,-0.01,.5,1.38) slideUp,3s Infinite  linear floating;animation-delay: 0s,1s;}svg#freepik_stories-security.animated #freepik--Plants--inject-190 {animation: 3s Infinite  linear floating;animation-delay: 0s;}            @keyframes slideLeft {                0% {                    opacity: 0;                    transform: translateX(-30px);                }                100% {                    opacity: 1;                    transform: translateX(0);                }            }                    @keyframes floating {                0% {                    opacity: 1;                    transform: translateY(0px);                }                50% {                    transform: translateY(-10px);                }                100% {                    opacity: 1;                    transform: translateY(0px);                }            }                    @keyframes slideUp {                0% {                    opacity: 0;                    transform: translateY(30px);                }                100% {                    opacity: 1;                    transform: inherit;                }            }        </style><g id="freepik--Graphics--inject-190" class="animable" style="transform-origin: 118.592px 231.399px;"><path d="M141,151v-5.24a13.59,13.59,0,0,0-13.56-13.57h-3.7a13.59,13.59,0,0,0-13.57,13.57V151h-1.24v27.76h33.31V151Zm-22.83-5.24a5.58,5.58,0,0,1,5.57-5.57h3.7a5.58,5.58,0,0,1,5.56,5.57V151H118.17Z" style="fill: none; stroke: rgb(38, 50, 56); stroke-miterlimit: 10; transform-origin: 125.585px 155.475px;" id="el0mlwimiacnu" class="animable"></path><path d="M128.32,163a2.73,2.73,0,1,0-4.28,2.24v7.66h3.11v-7.66A2.71,2.71,0,0,0,128.32,163Z" style="fill: none; stroke: rgb(38, 50, 56); stroke-miterlimit: 10; transform-origin: 125.59px 166.581px;" id="elv867hvo6r5q" class="animable"></path><line x1="72.56" y1="113.61" x2="113.46" y2="89.92" style="fill: none; stroke: rgb(38, 50, 56); stroke-miterlimit: 10; transform-origin: 93.01px 101.765px;" id="elphjl34wtni" class="animable"></line><line x1="179.09" y1="205.78" x2="141.87" y2="227.34" style="fill: none; stroke: rgb(38, 50, 56); stroke-miterlimit: 10; transform-origin: 160.48px 216.56px;" id="elcun5p2ro8jl" class="animable"></line><line x1="139.21" y1="89.57" x2="179.12" y2="112.53" style="fill: none; stroke: rgb(38, 50, 56); stroke-miterlimit: 10; transform-origin: 159.165px 101.05px;" id="elolx3mgvmizh" class="animable"></line><line x1="110.68" y1="226.77" x2="72.53" y2="204.82" style="fill: none; stroke: rgb(38, 50, 56); stroke-miterlimit: 10; transform-origin: 91.605px 215.795px;" id="el9syr2rvra7a" class="animable"></line><line x1="60.1" y1="135.54" x2="60.16" y2="182.83" style="fill: none; stroke: rgb(38, 50, 56); stroke-miterlimit: 10; transform-origin: 60.13px 159.185px;" id="elycibnxpqm9" class="animable"></line><line x1="193.32" y1="182.63" x2="193.25" y2="135.72" style="fill: none; stroke: rgb(38, 50, 56); stroke-miterlimit: 10; transform-origin: 193.285px 159.175px;" id="el9lizuy2iqyh" class="animable"></line><path d="M94.22,177.79a37.61,37.61,0,0,0,32,17.79h.4" style="fill: none; stroke: rgb(38, 50, 56); stroke-miterlimit: 10; transform-origin: 110.42px 186.685px;" id="elltie8jw4e1" class="animable"></path><path d="M159.16,139.77a37.61,37.61,0,0,0-32.56-19.45" style="fill: none; stroke: rgb(38, 50, 56); stroke-miterlimit: 10; transform-origin: 142.88px 130.045px;" id="ell7ss4hyw6qg" class="animable"></path><path d="M126.6,195.57A37.57,37.57,0,0,0,158,178" style="fill: none; stroke: rgb(38, 50, 56); stroke-miterlimit: 10; transform-origin: 142.3px 186.785px;" id="el6kryqb7gzew" class="animable"></path><path d="M159.16,139.77A37.6,37.6,0,0,1,158,178" style="fill: none; stroke: rgb(38, 50, 56); stroke-miterlimit: 10; transform-origin: 160.911px 158.885px;" id="el7z7pbutgp9n" class="animable"></path><path d="M93.07,140.09a37.67,37.67,0,0,0,1.15,37.7" style="fill: none; stroke: rgb(38, 50, 56); stroke-miterlimit: 10; transform-origin: 91.3946px 158.94px;" id="eltq3pr5htbrj" class="animable"></path><path d="M93.07,140.09a37.62,37.62,0,0,1,33.13-19.78h.4" style="fill: none; stroke: rgb(38, 50, 56); stroke-miterlimit: 10; transform-origin: 109.835px 130.2px;" id="elxoik66oshqr" class="animable"></path><path d="M113.46,89.92a16,16,0,0,0,12.74,6.33l.4,0" style="fill: none; stroke: rgb(38, 50, 56); stroke-miterlimit: 10; transform-origin: 120.03px 93.085px;" id="elfmp0670tyr" class="animable"></path><path d="M139.21,89.57a16,16,0,0,1-12.61,6.66" style="fill: none; stroke: rgb(38, 50, 56); stroke-miterlimit: 10; transform-origin: 132.905px 92.9px;" id="elpvtf3vxw90h" class="animable"></path><path d="M139.21,89.57a16,16,0,1,0-25.75.35" style="fill: none; stroke: rgb(38, 50, 56); stroke-miterlimit: 10; transform-origin: 126.206px 77.0842px;" id="el9jmdsq5k4wb" class="animable"></path><path d="M126.6,214.73a16,16,0,0,1,15.27,12.61" style="fill: none; stroke: rgb(38, 50, 56); stroke-miterlimit: 10; transform-origin: 134.235px 221.035px;" id="elhjpupey9nka" class="animable"></path><path d="M110.68,226.77a16,16,0,0,1,15.52-12.06l.4,0" style="fill: none; stroke: rgb(38, 50, 56); stroke-miterlimit: 10; transform-origin: 118.64px 220.74px;" id="el36kubd7uvwm" class="animable"></path><path d="M110.68,226.77a15.85,15.85,0,0,0-.52,4,16,16,0,1,0,31.71-3.41" style="fill: none; stroke: rgb(38, 50, 56); stroke-miterlimit: 10; transform-origin: 126.157px 236.568px;" id="eljc1q7kv426o" class="animable"></path><path d="M193.25,135.72h.2a16,16,0,1,0-14.33-23.2" style="fill: none; stroke: rgb(38, 50, 56); stroke-miterlimit: 10; transform-origin: 194.264px 119.72px;" id="elgrjyex555zw" class="animable"></path><path d="M179.62,127.79a15.9,15.9,0,0,1-.5-15.26" style="fill: none; stroke: rgb(38, 50, 56); stroke-miterlimit: 10; transform-origin: 178.515px 120.16px;" id="elz1afgvi819" class="animable"></path><path d="M193.25,135.72a16,16,0,0,1-13.63-7.93" style="fill: none; stroke: rgb(38, 50, 56); stroke-miterlimit: 10; transform-origin: 186.435px 131.755px;" id="el5vja4zrnzoo" class="animable"></path><path d="M60.1,135.54a16,16,0,0,0,11.57-7.94" style="fill: none; stroke: rgb(38, 50, 56); stroke-miterlimit: 10; transform-origin: 65.885px 131.57px;" id="el8tg4epq5q7l" class="animable"></path><path d="M72.56,113.61a16,16,0,1,0-14.84,22.12,15.6,15.6,0,0,0,2.38-.19" style="fill: none; stroke: rgb(38, 50, 56); stroke-miterlimit: 10; transform-origin: 57.1684px 119.73px;" id="elsbzeb8ap6he" class="animable"></path><path d="M72.56,113.61a16,16,0,0,1-.89,14" style="fill: none; stroke: rgb(38, 50, 56); stroke-miterlimit: 10; transform-origin: 72.7167px 120.61px;" id="el8t2pmvgwm5s" class="animable"></path><path d="M193.32,182.63a16,16,0,0,0-13.71,8" style="fill: none; stroke: rgb(38, 50, 56); stroke-miterlimit: 10; transform-origin: 186.465px 186.63px;" id="elj1fu7quprsq" class="animable"></path><path d="M193.32,182.63h.13a16,16,0,1,1-14.36,23.15" style="fill: none; stroke: rgb(38, 50, 56); stroke-miterlimit: 10; transform-origin: 194.247px 198.63px;" id="elsbvtvqo509f" class="animable"></path><path d="M179.61,190.59a15.91,15.91,0,0,0-.52,15.19" style="fill: none; stroke: rgb(38, 50, 56); stroke-miterlimit: 10; transform-origin: 178.51px 198.185px;" id="elsktvz2t5w2k" class="animable"></path><path d="M60.16,182.83a16.39,16.39,0,0,0-2.44-.2,16,16,0,1,0,14.81,22.19" style="fill: none; stroke: rgb(38, 50, 56); stroke-miterlimit: 10; transform-origin: 57.153px 198.63px;" id="elnq1tx9hw5w" class="animable"></path><path d="M60.16,182.83a16,16,0,0,1,11.61,8.1" style="fill: none; stroke: rgb(38, 50, 56); stroke-miterlimit: 10; transform-origin: 65.965px 186.88px;" id="elky44wk8k25a" class="animable"></path><path d="M72.53,204.82a16,16,0,0,0-.76-13.89" style="fill: none; stroke: rgb(38, 50, 56); stroke-miterlimit: 10; transform-origin: 72.7662px 197.875px;" id="el3h4kj3icrxu" class="animable"></path><line x1="126.6" y1="214.73" x2="126.6" y2="195.57" style="fill: none; stroke: rgb(38, 50, 56); stroke-miterlimit: 10; transform-origin: 126.6px 205.15px;" id="elnsydv4igx8m" class="animable"></line><line x1="126.6" y1="96.23" x2="126.6" y2="120.32" style="fill: none; stroke: rgb(38, 50, 56); stroke-miterlimit: 10; transform-origin: 126.6px 108.275px;" id="elmieutf2spjs" class="animable"></line><line x1="179.61" y1="190.59" x2="158.04" y2="178" style="fill: none; stroke: rgb(38, 50, 56); stroke-miterlimit: 10; transform-origin: 168.825px 184.295px;" id="el2dg2bhrhqks" class="animable"></line><line x1="93.07" y1="140.09" x2="71.67" y2="127.6" style="fill: none; stroke: rgb(38, 50, 56); stroke-miterlimit: 10; transform-origin: 82.37px 133.845px;" id="el5mahm2gjprp" class="animable"></line><line x1="94.22" y1="177.79" x2="71.77" y2="190.93" style="fill: none; stroke: rgb(38, 50, 56); stroke-miterlimit: 10; transform-origin: 82.995px 184.36px;" id="elb8g7ovnihi" class="animable"></line><line x1="179.62" y1="127.79" x2="159.16" y2="139.77" style="fill: none; stroke: rgb(38, 50, 56); stroke-miterlimit: 10; transform-origin: 169.39px 133.78px;" id="elrywnk7hqs5" class="animable"></line><line x1="193.45" y1="119.69" x2="192.52" y2="120.24" style="fill: none; stroke: rgb(38, 50, 56); stroke-miterlimit: 10; transform-origin: 192.985px 119.965px;" id="el1i0cumhup38" class="animable"></line><polygon points="127.78 299.95 127.78 271.78 103.37 257.69 78.97 271.78 78.97 299.95 103.37 314.04 127.78 299.95" style="fill: none; stroke: rgb(38, 50, 56); stroke-miterlimit: 10; transform-origin: 103.375px 285.865px;" id="elwhd1iucge4" class="animable"></polygon><polygon points="152.4 342.27 152.4 314.09 128 300 103.6 314.09 103.6 342.27 128 356.36 152.4 342.27" style="fill: none; stroke: rgb(38, 50, 56); stroke-miterlimit: 10; transform-origin: 128px 328.18px;" id="elglgs9541d7e" class="animable"></polygon><polygon points="128.07 384.46 128.07 356.28 103.67 342.19 79.26 356.28 79.26 384.46 103.67 398.55 128.07 384.46" style="fill: none; stroke: rgb(38, 50, 56); stroke-miterlimit: 10; transform-origin: 103.665px 370.37px;" id="elx1j42e3f4r" class="animable"></polygon><path d="M113.52,281.56V278.3a8.45,8.45,0,0,0-8.43-8.44h-2.31a8.45,8.45,0,0,0-8.43,8.44v3.26h-.77v17.26h20.71V281.56ZM99.33,278.3a3.46,3.46,0,0,1,3.45-3.46h2.31a3.46,3.46,0,0,1,3.45,3.46v3.26H99.33Z" style="fill: none; stroke: rgb(38, 50, 56); stroke-miterlimit: 10; transform-origin: 103.935px 284.34px;" id="eldbbh6opupc" class="animable"></path><path d="M105.64,289a1.7,1.7,0,1,0-2.66,1.4v4.76h1.92v-4.76A1.69,1.69,0,0,0,105.64,289Z" style="fill: none; stroke: rgb(38, 50, 56); stroke-miterlimit: 10; transform-origin: 103.94px 291.228px;" id="el7rjdwtzcph" class="animable"></path><path d="M136.86,324.05v-3.26a8.44,8.44,0,0,0-8.43-8.43h-2.3a8.45,8.45,0,0,0-8.44,8.43v3.26h-.77v17.26h20.71V324.05Zm-14.19-3.26a3.46,3.46,0,0,1,3.46-3.46h2.3a3.47,3.47,0,0,1,3.46,3.46v3.26h-9.22Z" style="fill: none; stroke: rgb(38, 50, 56); stroke-miterlimit: 10; transform-origin: 127.275px 326.835px;" id="eltsvgsntuh4e" class="animable"></path><path d="M129,331.54a1.7,1.7,0,1,0-2.66,1.39v4.76h1.93v-4.76A1.68,1.68,0,0,0,129,331.54Z" style="fill: none; stroke: rgb(38, 50, 56); stroke-miterlimit: 10; transform-origin: 127.3px 333.759px;" id="elxvi9syt15c" class="animable"></path><path d="M113.32,366.25V363a8.45,8.45,0,0,0-8.43-8.44h-2.3A8.45,8.45,0,0,0,94.15,363v3.26h-.77v17.26H114.1V366.25ZM99.13,363a3.46,3.46,0,0,1,3.46-3.46h2.3a3.46,3.46,0,0,1,3.46,3.46v3.26H99.13Z" style="fill: none; stroke: rgb(38, 50, 56); stroke-miterlimit: 10; transform-origin: 103.74px 369.04px;" id="el6gtdxbxku1r" class="animable"></path><path d="M105.44,373.73a1.7,1.7,0,1,0-2.66,1.4v4.76h1.93v-4.76A1.71,1.71,0,0,0,105.44,373.73Z" style="fill: none; stroke: rgb(38, 50, 56); stroke-miterlimit: 10; transform-origin: 103.74px 375.958px;" id="elat60kjcgoar" class="animable"></path><path d="M50.74,309.4l.33-.58c-.37-.45-.77-.88-1.17-1.28-7-3.19-13.95-1-16.4,0-.25.25-.5.52-.74.79l.38.77C33.24,309.06,42.37,304.62,50.74,309.4Z" style="fill: rgb(38, 50, 56); transform-origin: 41.915px 307.636px;" id="elbyh4a1nejzs" class="animable"></path><path d="M54.85,315.78a24,24,0,0,0-1-2.61,18.37,18.37,0,0,0-11.23-4c-5.33,0-10.56,2.75-13.15,4.35q-.45,1-.81,2.07c.86-.61,7.47-5.14,14-5.14A17.51,17.51,0,0,1,54.85,315.78Z" style="fill: rgb(38, 50, 56); transform-origin: 41.755px 312.475px;" id="elmv4lc2gvgq" class="animable"></path><path d="M30.3,333.36c0-.07-3.25-7,.9-13.5a13.74,13.74,0,0,1,9.29-6.3c3.58-.65,6.65.13,8,1.13a27.57,27.57,0,0,1,5.08,5.43,23.81,23.81,0,0,0,2.66,3.1c0-.69-.09-1.36-.17-2-.47-.55-1-1.18-1.48-1.85a28.25,28.25,0,0,0-5.32-5.67c-1.61-1.2-5-2.09-9-1.37a15,15,0,0,0-10.14,6.87c-4.53,7.12-1.12,14.44-1,14.74Z" style="fill: rgb(38, 50, 56); transform-origin: 42.0032px 323.006px;" id="eldmlb8aud469" class="animable"></path><path d="M54.7,324.77a22.1,22.1,0,0,1-1.46-2.2c-1.86-3-4.18-6.83-11-6.83a9.45,9.45,0,0,0-7.5,3.17c-2.58,3-3,7.35-2.54,10.43a7.61,7.61,0,0,1-2.56,7q.28.58.6,1.14a8.92,8.92,0,0,0,3.22-8.28c-.42-2.8-.05-6.73,2.25-9.4A8.2,8.2,0,0,1,42.27,317c6.07,0,8,3.16,9.87,6.22a23.59,23.59,0,0,0,1.56,2.33,8.16,8.16,0,0,0,2.4,2.09c0-.47.09-1,.11-1.44A7.44,7.44,0,0,1,54.7,324.77Z" style="fill: rgb(38, 50, 56); transform-origin: 42.925px 326.605px;" id="elcbxlmkmmhip" class="animable"></path><path d="M50,324.86a16,16,0,0,0-.89-1.62c-1.21-1.82-4.06-6.08-9.88-3.69-4.57,1.89-4.14,6.69-3.75,10.92.11,1.23.22,2.39.22,3.48,0,3-2.16,5.08-3.64,6.13.28.35.56.67.85,1C34.56,339.85,37,337.5,37,334c0-1.15-.11-2.39-.22-3.59-.38-4.17-.74-8.1,3-9.62,4.85-2,7,1.26,8.33,3.21.23.36.5.89.81,1.5A17.81,17.81,0,0,0,55,333c.13-.43.25-.87.36-1.31A16.83,16.83,0,0,1,50,324.86Z" style="fill: rgb(38, 50, 56); transform-origin: 43.71px 329.96px;" id="els01a287kav" class="animable"></path><path d="M49,330.36a7.54,7.54,0,0,1-1.5-2.63,9.41,9.41,0,0,0-3-4.33A3.13,3.13,0,0,0,41,323c-1.85,1-3,3.77-2.82,6.61.28,3.56,8.16,9.85,11.48,12.35.31-.29.61-.61.9-.93-3.85-2.9-10.89-8.73-11.1-11.52-.18-2.31.74-4.63,2.15-5.38a1.85,1.85,0,0,1,2.15.29,8.21,8.21,0,0,1,2.56,3.8,8.65,8.65,0,0,0,1.78,3,59.26,59.26,0,0,0,5.84,4.57c.18-.4.36-.79.52-1.21A55.25,55.25,0,0,1,49,330.36Z" style="fill: rgb(38, 50, 56); transform-origin: 46.3108px 332.3px;" id="elogemk9c272d" class="animable"></path><path d="M42,326.77c.27,4.41,7.26,10.79,9.73,12.92.25-.34.5-.7.73-1.06-3.15-2.72-9-8.43-9.18-11.94Z" style="fill: rgb(38, 50, 56); transform-origin: 47.23px 333.19px;" id="elry9g7t97lrk" class="animable"></path><path d="M43.68,339.36c-.94-1.1-1.69-2-3-2-2,0-5,3.31-6.4,5a12.52,12.52,0,0,0,1,.78c1.77-2.11,4.24-4.54,5.38-4.54.67,0,1.13.49,2,1.52a17.73,17.73,0,0,0,4.21,3.75,14.29,14.29,0,0,0,1.21-.76A16.41,16.41,0,0,1,43.68,339.36Z" style="fill: rgb(38, 50, 56); transform-origin: 41.18px 340.615px;" id="el0xxails0sgon" class="animable"></path><path d="M44.7,344.88c-.92-1.38-2.44-3.43-3.53-3.7-1.3-.33-2.45,1.69-3.18,3.44.41.15.82.28,1.24.39a6.24,6.24,0,0,1,1.63-2.59c.46.11,1.51,1.35,2.49,2.76A10.15,10.15,0,0,0,44.7,344.88Z" style="fill: rgb(38, 50, 56); transform-origin: 41.345px 343.162px;" id="elm924hum90u" class="animable"></path><line x1="63.66" y1="317.78" x2="90.81" y2="317.78" style="fill: none; stroke: rgb(38, 50, 56); stroke-miterlimit: 10; transform-origin: 77.235px 317.78px;" id="elwyyi3mfy87n" class="animable"></line><line x1="63.66" y1="323.28" x2="90.81" y2="323.28" style="fill: none; stroke: rgb(38, 50, 56); stroke-miterlimit: 10; transform-origin: 77.235px 323.28px;" id="el6fi0glcpc7" class="animable"></line><line x1="63.66" y1="328.79" x2="90.81" y2="328.79" style="fill: none; stroke: rgb(38, 50, 56); stroke-miterlimit: 10; transform-origin: 77.235px 328.79px;" id="el9qaiqfu67pi" class="animable"></line><line x1="63.66" y1="334.3" x2="90.81" y2="334.3" style="fill: none; stroke: rgb(38, 50, 56); stroke-miterlimit: 10; transform-origin: 77.235px 334.3px;" id="elubjd2x7zl9r" class="animable"></line></g><g id="freepik--device-2--inject-190" class="animable" style="transform-origin: 342.817px 117.207px;"><path d="M397.5,104h1.56a4.2,4.2,0,0,1,4.2,4.2v49.2a0,0,0,0,1,0,0h-10a0,0,0,0,1,0,0v-49.2A4.2,4.2,0,0,1,397.5,104Z" style="fill: rgb(255, 255, 255); stroke: rgb(38, 50, 56); stroke-miterlimit: 10; transform-origin: 398.26px 130.7px;" id="elfh3nq8cyc56" class="animable"></path><path d="M398.44,104H400a4.2,4.2,0,0,1,4.2,4.2v49.2a0,0,0,0,1,0,0h-10a0,0,0,0,1,0,0v-49.2A4.2,4.2,0,0,1,398.44,104Z" style="fill: rgb(163, 163, 163); stroke: rgb(38, 50, 56); stroke-miterlimit: 10; transform-origin: 399.2px 130.7px;" id="el2ifuqb1qhxu" class="animable"></path><path d="M372.7,150.3,390,139.83l4.65-3.71s2.42-5.8,1-11-2.9-5.08-2.9-5.08l-16,7.38S382.15,142.83,372.7,150.3Z" style="fill: rgb(38, 50, 56); stroke: rgb(38, 50, 56); stroke-linecap: round; stroke-linejoin: round; transform-origin: 384.398px 135.17px;" id="elxg7rjta9uh" class="animable"></path><path d="M364.58,126.57l8.83-2.18c-4.53-9-13.87-13.58-21.14-10.18-6.37,3-9.08,11.08-6.95,19.28Z" style="fill: rgb(255, 255, 255); stroke: rgb(38, 50, 56); stroke-miterlimit: 10; transform-origin: 359.007px 123.288px;" id="el8tzqyz9j1ht" class="animable"></path><g id="ele6v1a9rsah"><ellipse cx="364.72" cy="133.22" rx="14.85" ry="18.85" style="fill: rgb(79, 79, 79); stroke: rgb(38, 50, 56); stroke-linecap: round; stroke-linejoin: round; transform-origin: 364.72px 133.22px; transform: rotate(-25.04deg);" class="animable"></ellipse></g><path d="M368.49,132c1.91,4.09.84,8.63-2.38,10.14s-7.39-.59-9.3-4.68-.85-8.64,2.38-10.14S366.58,127.88,368.49,132Z" style="fill: rgb(38, 50, 56); stroke: rgb(38, 50, 56); stroke-linecap: round; stroke-linejoin: round; transform-origin: 362.649px 134.73px;" id="el0rrv9tdgher" class="animable"></path><path d="M408.47,108.76c-4.2-9-13.12-13.8-20.38-11.22l0-.12L355.15,113l-5.57,2.66a21.79,21.79,0,0,1,25.65,11.86c0,.1.1.21.14.31a3,3,0,0,0,4,1.52l11.45-5.1s3.95,8.37-.78,15.56l12-7.31c.32-.12.64-.25.95-.4C410.43,128.65,412.88,118.19,408.47,108.76Z" style="fill: rgb(255, 255, 255); stroke: rgb(38, 50, 56); stroke-miterlimit: 10; transform-origin: 380.121px 118.328px;" id="ellgr25bg282q" class="animable"></path><path d="M408.17,104h1.56a4.2,4.2,0,0,1,4.2,4.2v49.2a0,0,0,0,1,0,0H404a0,0,0,0,1,0,0v-49.2A4.2,4.2,0,0,1,408.17,104Z" style="fill: rgb(255, 255, 255); stroke: rgb(38, 50, 56); stroke-miterlimit: 10; transform-origin: 408.965px 130.7px;" id="eli4jw9zt93q" class="animable"></path><path d="M409.11,104h1.56a4.2,4.2,0,0,1,4.2,4.2v49.2a0,0,0,0,1,0,0h-10a0,0,0,0,1,0,0v-49.2A4.2,4.2,0,0,1,409.11,104Z" style="fill: rgb(255, 255, 255); stroke: rgb(38, 50, 56); stroke-miterlimit: 10; transform-origin: 409.87px 130.7px;" id="elycevoo1wr0g" class="animable"></path><path d="M379.48,156.68h42.82a1.5,1.5,0,0,1,1.5,1.5v2.06a0,0,0,0,1,0,0H378a0,0,0,0,1,0,0v-2.06A1.5,1.5,0,0,1,379.48,156.68Z" style="fill: rgb(255, 255, 255); stroke: rgb(38, 50, 56); stroke-miterlimit: 10; transform-origin: 400.9px 158.46px;" id="elh7m9bpf855t" class="animable"></path><path d="M371.27,159.29H430.5a1.5,1.5,0,0,1,1.5,1.5v2.06a0,0,0,0,1,0,0H369.77a0,0,0,0,1,0,0v-2.06A1.5,1.5,0,0,1,371.27,159.29Z" style="fill: rgb(255, 255, 255); stroke: rgb(38, 50, 56); stroke-miterlimit: 10; transform-origin: 400.885px 161.07px;" id="elff9yfwc4f5" class="animable"></path><g id="elgv9rjgwpa6"><circle cx="291.46" cy="109.39" r="31.38" style="fill: rgb(146, 227, 169); stroke: rgb(38, 50, 56); stroke-miterlimit: 10; transform-origin: 291.46px 109.39px; transform: rotate(-13.47deg);" class="animable"></circle></g><g id="elzunrkmxvbo"><circle cx="291.46" cy="98.74" r="10.65" style="fill: rgb(38, 50, 56); stroke: rgb(38, 50, 56); stroke-miterlimit: 10; transform-origin: 291.46px 98.74px; transform: rotate(-76.66deg);" class="animable"></circle></g><path d="M308.56,129.17a17.1,17.1,0,0,0-34.2,0Z" style="fill: rgb(38, 50, 56); stroke: rgb(38, 50, 56); stroke-miterlimit: 10; transform-origin: 291.46px 120.62px;" id="elsulot343xs" class="animable"></path><line x1="321.33" y1="114.8" x2="339.58" y2="122.41" style="fill: rgb(255, 255, 255); stroke: rgb(38, 50, 56); stroke-miterlimit: 10; transform-origin: 330.455px 118.605px;" id="el40v76xosqyo" class="animable"></line></g><g id="freepik--device-1--inject-190" class="animable" style="transform-origin: 274.475px 299.032px;"><path d="M386.33,426.33l-31.05-50-62.41,1.12,30.05,48.95a9.54,9.54,0,0,1-2,12.31l-7.09.5H231.27V441H378.2A9.57,9.57,0,0,0,386.33,426.33Z" style="fill: rgb(38, 50, 56); stroke: rgb(38, 50, 56); stroke-linecap: round; stroke-linejoin: round; transform-origin: 309.536px 408.665px;" id="el2focb523gya" class="animable"></path><path d="M351.75,377.36l31.05,50A9.57,9.57,0,0,1,374.67,442H311.24a9.57,9.57,0,0,0,8.15-14.58l-30.05-48.95Z" style="fill: rgb(255, 255, 255); stroke: rgb(38, 50, 56); stroke-linecap: round; stroke-linejoin: round; transform-origin: 336.797px 409.68px;" id="el1tkgn6u63ka" class="animable"></path><polygon points="350 374.54 287.59 375.65 299.15 394.48 362.38 394.48 350 374.54" style="fill: rgb(38, 50, 56); stroke: rgb(38, 50, 56); stroke-linecap: round; stroke-linejoin: round; transform-origin: 324.985px 384.51px;" id="eld2tjnumlkpm" class="animable"></polygon><g id="el1acx17bkkk4"><rect x="180.11" y="163.42" width="265.27" height="224.03" rx="2.91" style="fill: rgb(38, 50, 56); stroke: rgb(38, 50, 56); stroke-linecap: round; stroke-linejoin: round; transform-origin: 312.745px 275.435px; transform: rotate(180deg);" class="animable"></rect></g><g id="eld4xli9ckux"><rect x="170.08" y="163.42" width="265.27" height="224.03" rx="9.06" style="fill: rgb(255, 255, 255); stroke: rgb(38, 50, 56); stroke-linecap: round; stroke-linejoin: round; transform-origin: 302.715px 275.435px; transform: rotate(180deg);" class="animable"></rect></g><path d="M178.73,163.42h248a8.66,8.66,0,0,1,8.65,8.66V347.33H170.08V172.08A8.66,8.66,0,0,1,178.73,163.42Z" style="fill: rgb(38, 50, 56); stroke: rgb(38, 50, 56); stroke-linecap: round; stroke-linejoin: round; transform-origin: 302.73px 255.375px;" id="el7b727a7pfjb" class="animable"></path><g id="elqhu20g1it4c"><rect x="181.22" y="172.34" width="242.98" height="162.73" style="fill: rgb(255, 255, 255); stroke: rgb(38, 50, 56); stroke-linecap: round; stroke-linejoin: round; transform-origin: 302.71px 253.705px; transform: rotate(180deg);" class="animable"></rect></g><line x1="181.67" y1="249" x2="424.33" y2="249" style="fill: none; stroke: rgb(38, 50, 56); stroke-miterlimit: 10; transform-origin: 303px 249px;" id="elu0a5clciy6r" class="animable"></line><path d="M191.87,244.39a2.44,2.44,0,1,1-2.43-2.44A2.43,2.43,0,0,1,191.87,244.39Z" style="fill: none; stroke: rgb(38, 50, 56); stroke-miterlimit: 10; transform-origin: 189.43px 244.39px;" id="elu05o8sg1iqg" class="animable"></path><circle cx="200.22" cy="244.39" r="2.43" style="fill: none; stroke: rgb(38, 50, 56); stroke-miterlimit: 10; transform-origin: 200.22px 244.39px;" id="elq6bk5v5ryoe" class="animable"></circle><circle cx="211" cy="244.39" r="2.43" style="fill: none; stroke: rgb(38, 50, 56); stroke-miterlimit: 10; transform-origin: 211px 244.39px;" id="el2v224ynjgsl" class="animable"></circle><path d="M224.21,244.39a2.43,2.43,0,1,1-2.43-2.44A2.43,2.43,0,0,1,224.21,244.39Z" style="fill: none; stroke: rgb(38, 50, 56); stroke-miterlimit: 10; transform-origin: 221.78px 244.38px;" id="elapucrw2tjck" class="animable"></path><path d="M235,244.39a2.44,2.44,0,1,1-2.44-2.44A2.43,2.43,0,0,1,235,244.39Z" style="fill: none; stroke: rgb(38, 50, 56); stroke-miterlimit: 10; transform-origin: 232.56px 244.39px;" id="eld947mc136a" class="animable"></path><path d="M365.41,244.39A2.44,2.44,0,1,1,363,242,2.43,2.43,0,0,1,365.41,244.39Z" style="fill: none; stroke: rgb(38, 50, 56); stroke-miterlimit: 10; transform-origin: 362.971px 244.44px;" id="elriejv61ege" class="animable"></path><path d="M376.19,244.39a2.44,2.44,0,1,1-2.43-2.44A2.43,2.43,0,0,1,376.19,244.39Z" style="fill: none; stroke: rgb(38, 50, 56); stroke-miterlimit: 10; transform-origin: 373.75px 244.39px;" id="elqxb73hcfn3" class="animable"></path><path d="M387,244.39a2.43,2.43,0,1,1-2.43-2.44A2.43,2.43,0,0,1,387,244.39Z" style="fill: none; stroke: rgb(38, 50, 56); stroke-miterlimit: 10; transform-origin: 384.57px 244.38px;" id="elhpgq0165e3" class="animable"></path><path d="M397.76,244.39a2.44,2.44,0,1,1-2.44-2.44A2.43,2.43,0,0,1,397.76,244.39Z" style="fill: none; stroke: rgb(38, 50, 56); stroke-miterlimit: 10; transform-origin: 395.32px 244.39px;" id="elv2lkwuexl18" class="animable"></path><circle cx="406.1" cy="244.39" r="2.43" style="fill: none; stroke: rgb(38, 50, 56); stroke-miterlimit: 10; transform-origin: 406.1px 244.39px;" id="eltqfgke7oe18" class="animable"></circle><circle cx="416.88" cy="244.39" r="2.43" style="fill: none; stroke: rgb(38, 50, 56); stroke-miterlimit: 10; transform-origin: 416.88px 244.39px;" id="el22o4jqtvlvi" class="animable"></circle><rect x="233.67" y="305.67" width="124.67" height="18" rx="3" style="fill: rgb(146, 227, 169); stroke: rgb(38, 50, 56); stroke-linecap: round; stroke-linejoin: round; transform-origin: 296.005px 314.67px;" id="ell7kvszrzq1s" class="animable"></rect><path d="M262.87,314l-.37-2.31h1.26L263.4,314l2.09-1.05.39,1.19-2.3.39,1.64,1.64-1,.74-1.08-2.07-1.08,2.07-1-.74,1.63-1.64-2.29-.39.39-1.19Z" style="fill: rgb(38, 50, 56); transform-origin: 263.14px 314.3px;" id="elr8e7jh0pfn" class="animable"></path><path d="M270.58,314l-.36-2.31h1.26l-.37,2.31,2.09-1.05.39,1.19-2.29.39,1.63,1.64-1,.74-1.08-2.07-1.08,2.07-1-.74,1.64-1.64-2.3-.39.39-1.19Z" style="fill: rgb(38, 50, 56); transform-origin: 270.85px 314.3px;" id="eln0xbusvjvkr" class="animable"></path><path d="M278.29,314l-.36-2.31h1.26l-.36,2.31,2.08-1.05.4,1.19-2.3.39,1.64,1.64-1,.74-1.08-2.07-1.08,2.07-1-.74,1.64-1.64-2.29-.39.39-1.19Z" style="fill: rgb(38, 50, 56); transform-origin: 278.575px 314.3px;" id="elzik3mn51cwn" class="animable"></path><path d="M286,314l-.37-2.31h1.27l-.37,2.31,2.09-1.05.39,1.19-2.3.39,1.64,1.64-1,.74-1.08-2.07-1.07,2.07-1-.74,1.64-1.64-2.3-.39.39-1.19Z" style="fill: rgb(38, 50, 56); transform-origin: 286.275px 314.3px;" id="el379ejdqr0pw" class="animable"></path><path d="M293.72,314l-.36-2.31h1.26l-.37,2.31,2.09-1.05.39,1.19-2.29.39,1.64,1.64-1,.74L294,314.82l-1.08,2.07-1-.74,1.64-1.64-2.3-.39.4-1.19Z" style="fill: rgb(38, 50, 56); transform-origin: 293.995px 314.3px;" id="elgbbe0qszk8" class="animable"></path><path d="M301.44,314l-.37-2.31h1.26L302,314l2.09-1.05.39,1.19-2.3.39,1.64,1.64-1,.74-1.08-2.07-1.08,2.07-1-.74,1.63-1.64-2.29-.39.39-1.19Z" style="fill: rgb(38, 50, 56); transform-origin: 301.74px 314.3px;" id="elmna29q6tc" class="animable"></path><path d="M309.15,314l-.36-2.31h1.26l-.37,2.31,2.09-1.05.39,1.19-2.29.39,1.63,1.64-1,.74-1.08-2.07-1.08,2.07-1-.74,1.64-1.64-2.3-.39.39-1.19Z" style="fill: rgb(38, 50, 56); transform-origin: 309.42px 314.3px;" id="elr5ja3uyr88" class="animable"></path><path d="M316.86,314l-.36-2.31h1.26L317.4,314l2.08-1.05.4,1.19-2.3.39,1.64,1.64-1,.74-1.08-2.07-1.08,2.07-1-.74,1.64-1.64-2.29-.39.39-1.19Z" style="fill: rgb(38, 50, 56); transform-origin: 317.145px 314.3px;" id="elxv2inucljb" class="animable"></path><path d="M324.58,314l-.37-2.31h1.26l-.36,2.31,2.09-1.05.39,1.19-2.3.39,1.64,1.64-1,.74-1.08-2.07-1.07,2.07-1-.74,1.64-1.64-2.3-.39.39-1.19Z" style="fill: rgb(38, 50, 56); transform-origin: 324.855px 314.3px;" id="elhrmhmb5a8np" class="animable"></path><path d="M332.29,314l-.36-2.31h1.26l-.37,2.31,2.09-1.05.39,1.19-2.29.39,1.64,1.64-1,.74-1.08-2.07-1.08,2.07-1-.74,1.64-1.64-2.3-.39.4-1.19Z" style="fill: rgb(38, 50, 56); transform-origin: 332.565px 314.3px;" id="eltbb28vsm8q" class="animable"></path><g id="elhq73mtb2j6"><circle cx="297.17" cy="240.45" r="59.67" style="fill: rgb(146, 227, 169); stroke: rgb(38, 50, 56); stroke-linecap: round; stroke-linejoin: round; transform-origin: 297.17px 240.45px; transform: rotate(-45deg);" class="animable"></circle></g><g id="elheilkb1avru"><circle cx="297.17" cy="240.45" r="40.78" style="fill: rgb(38, 50, 56); stroke: rgb(38, 50, 56); stroke-linecap: round; stroke-linejoin: round; transform-origin: 297.17px 240.45px; transform: rotate(-45deg);" class="animable"></circle></g><g id="elcsbdqc571np"><circle cx="293.46" cy="240.45" r="40.78" style="fill: rgb(255, 255, 255); stroke: rgb(38, 50, 56); stroke-linecap: round; stroke-linejoin: round; transform-origin: 293.46px 240.45px; transform: rotate(-21.92deg);" class="animable"></circle></g><g id="el7jeij7y9i2f"><circle cx="293.65" cy="240.45" r="28.71" style="fill: rgb(146, 227, 169); stroke: rgb(38, 50, 56); stroke-linecap: round; stroke-linejoin: round; transform-origin: 293.65px 240.45px; transform: rotate(-45deg);" class="animable"></circle></g><path d="M244,219.42l.69-1.52,8.28,3.77,1.14-2.49,1.38.62-1.83,4Z" style="fill: rgb(38, 50, 56); transform-origin: 249.745px 220.85px;" id="elyzjtu89z28c" class="animable"></path><path d="M248.72,215.35a2.53,2.53,0,1,1,2.63-4.32l4.71,2.86a2.54,2.54,0,1,1-2.63,4.33Zm5.67,1.5c.65.39,1.07.26,1.34-.2s.2-.89-.44-1.28l-4.9-3c-.65-.4-1.07-.26-1.34.19s-.2.89.44,1.28Z" style="fill: rgb(38, 50, 56); transform-origin: 252.442px 214.656px;" id="eln9wkgydej1c" class="animable"></path><path d="M256.61,208.15l3.94,4.1L259.08,214l-8.88-5.93,1-1.24,7,4.71-5.89-6,1-1.22,7,4.78L254.46,203l.94-1.12,7.36,7.74-1.43,1.69Z" style="fill: rgb(38, 50, 56); transform-origin: 256.48px 207.94px;" id="el0zncs1zmysh" class="animable"></path><path d="M283.47,194.26l-.72-7.59,2.25-.56,2.57,10.3-1.53.38-1.85-7.38.73,7.66-1.53.38-3-7,1.81,7.28-1.41.36-2.57-10.3,2.25-.56Z" style="fill: rgb(38, 50, 56); transform-origin: 282.895px 192.1px;" id="elle0elcmjtmb" class="animable"></path><path d="M289.46,190.09l2.28-.23.15,1.51-2.28.23.31,3.09,2.87-.28.15,1.51-4.53.44-1.05-10.56,4.53-.45.15,1.51-2.87.28Z" style="fill: rgb(38, 50, 56); transform-origin: 290.15px 190.855px;" id="el07lhmmlakg5b" class="animable"></path><path d="M293.88,185.27l2.64.06c1.66,0,2.46,1,2.42,2.68l-.13,5.37c0,1.7-.88,2.6-2.54,2.56l-2.64-.06Zm1.63,1.56-.18,7.57.94,0c.53,0,.86-.26.88-1l.13-5.52c0-.76-.3-1-.83-1.05Z" style="fill: rgb(38, 50, 56); transform-origin: 296.286px 190.606px;" id="eluypi9769q8i" class="animable"></path><path d="M300.83,185.61l1.66.2-1.27,10.54-1.66-.2Z" style="fill: rgb(38, 50, 56); transform-origin: 301.025px 190.98px;" id="elhax2v9jjrhl" class="animable"></path><path d="M306,186.41l-1.75,8c-.16.75.11,1.08.63,1.2s.9-.09,1.06-.83l1.75-8,1.54.33-1.73,7.9c-.36,1.66-1.39,2.42-3,2.07s-2.22-1.48-1.86-3.14l1.72-7.89Z" style="fill: rgb(38, 50, 56); transform-origin: 305.885px 191.607px;" id="ellmnxugbtjz" class="animable"></path><path d="M312.11,196l3.76-6.63,2.17.83-3.81,9.91-1.47-.57,2.73-7.1-3.81,6.69-1.47-.57,1.54-7.45-2.7,7-1.36-.52,3.81-9.91,2.17.83Z" style="fill: rgb(38, 50, 56); transform-origin: 312.865px 193.895px;" id="el4hm81drcr9z" class="animable"></path><path d="M331.23,214.53l-.94-1.37,8.75-6,.94,1.37-3.75,2.57,1.07,1.57,3.75-2.57,1,1.4-8.75,6-1-1.4,3.75-2.58L335,212Z" style="fill: rgb(38, 50, 56); transform-origin: 336.17px 212.33px;" id="elg4zo0kqppn" class="animable"></path><path d="M343,213.25l.8,1.46-9.31,5.11-.8-1.47Z" style="fill: rgb(38, 50, 56); transform-origin: 338.745px 216.535px;" id="elb3e2tf72rkm" class="animable"></path><path d="M341.4,220.63l.93,2.15-3.1,1.33c-1.56.67-2.78.27-3.43-1.23s-.09-2.67,1.46-3.34l5.07-2.18c1.57-.68,2.79-.28,3.44,1.22s.09,2.67-1.47,3.34l-.95.41-.62-1.45,1-.45c.69-.3.82-.72.62-1.2s-.61-.68-1.31-.38l-5.26,2.26c-.7.3-.82.72-.61,1.2s.6.69,1.29.39l1.8-.77-.3-.7Z" style="fill: rgb(38, 50, 56); transform-origin: 340.785px 220.732px;" id="el21mwobyjxj" class="animable"></path><path d="M337.6,227.39l-.46-1.6,10.22-2.88.45,1.6-4.38,1.24.52,1.82,4.37-1.23.46,1.63-10.21,2.88-.46-1.63,4.38-1.24-.52-1.82Z" style="fill: rgb(38, 50, 56); transform-origin: 342.96px 226.88px;" id="ele0lgt6nfnuh" class="animable"></path><line x1="264.85" y1="192.98" x2="270.95" y2="202.84" style="fill: none; stroke: rgb(38, 50, 56); stroke-miterlimit: 10; transform-origin: 267.9px 197.91px;" id="elxhvfd02cnu" class="animable"></line><line x1="331.46" y1="195.8" x2="324.43" y2="205.18" style="fill: none; stroke: rgb(38, 50, 56); stroke-miterlimit: 10; transform-origin: 327.945px 200.49px;" id="elb09js9m27fv" class="animable"></line><polygon points="328.41 222.27 303.14 227.24 310.39 240.67 328.41 222.27" style="fill: rgb(38, 50, 56); stroke: rgb(38, 50, 56); stroke-miterlimit: 10; transform-origin: 315.775px 231.47px;" id="elw8lxy7625c" class="animable"></polygon><rect x="107.56" y="430.74" width="7.72" height="2.57" style="fill: rgb(255, 255, 255); stroke: rgb(38, 50, 56); stroke-linecap: round; stroke-linejoin: round; transform-origin: 111.42px 432.025px;" id="elh5a6gq0orad" class="animable"></rect><rect x="117.85" y="430.74" width="7.72" height="2.57" style="fill: rgb(255, 255, 255); stroke: rgb(38, 50, 56); stroke-linecap: round; stroke-linejoin: round; transform-origin: 121.71px 432.025px;" id="eldzpg2yvgu3" class="animable"></rect><rect x="128.13" y="430.74" width="7.72" height="2.57" style="fill: rgb(255, 255, 255); stroke: rgb(38, 50, 56); stroke-linecap: round; stroke-linejoin: round; transform-origin: 131.99px 432.025px;" id="elaxrn9010h18" class="animable"></rect><rect x="138.42" y="430.74" width="7.72" height="2.57" style="fill: rgb(255, 255, 255); stroke: rgb(38, 50, 56); stroke-linecap: round; stroke-linejoin: round; transform-origin: 142.28px 432.025px;" id="elsw5vtbf21u" class="animable"></rect><rect x="148.71" y="430.74" width="7.72" height="2.57" style="fill: rgb(255, 255, 255); stroke: rgb(38, 50, 56); stroke-linecap: round; stroke-linejoin: round; transform-origin: 152.57px 432.025px;" id="elip6elu7tsh" class="animable"></rect><rect x="159" y="430.74" width="7.72" height="2.57" style="fill: rgb(255, 255, 255); stroke: rgb(38, 50, 56); stroke-linecap: round; stroke-linejoin: round; transform-origin: 162.86px 432.025px;" id="elocotuzog6m" class="animable"></rect><rect x="169.29" y="430.74" width="7.72" height="2.57" style="fill: rgb(255, 255, 255); stroke: rgb(38, 50, 56); stroke-linecap: round; stroke-linejoin: round; transform-origin: 173.15px 432.025px;" id="elw4pukggzbbb" class="animable"></rect><rect x="179.58" y="430.74" width="7.72" height="2.57" style="fill: rgb(255, 255, 255); stroke: rgb(38, 50, 56); stroke-linecap: round; stroke-linejoin: round; transform-origin: 183.44px 432.025px;" id="elnh5mkqqjq0m" class="animable"></rect><rect x="189.87" y="430.74" width="7.72" height="2.57" style="fill: rgb(255, 255, 255); stroke: rgb(38, 50, 56); stroke-linecap: round; stroke-linejoin: round; transform-origin: 193.73px 432.025px;" id="el20m1ssjaba5" class="animable"></rect><rect x="200.16" y="430.74" width="7.72" height="2.57" style="fill: rgb(255, 255, 255); stroke: rgb(38, 50, 56); stroke-linecap: round; stroke-linejoin: round; transform-origin: 204.02px 432.025px;" id="elglc7x5k2f65" class="animable"></rect><rect x="210.45" y="430.74" width="7.72" height="2.57" style="fill: rgb(255, 255, 255); stroke: rgb(38, 50, 56); stroke-linecap: round; stroke-linejoin: round; transform-origin: 214.31px 432.025px;" id="elwmpr8afwnri" class="animable"></rect><rect x="220.74" y="430.74" width="7.72" height="2.57" style="fill: rgb(255, 255, 255); stroke: rgb(38, 50, 56); stroke-linecap: round; stroke-linejoin: round; transform-origin: 224.6px 432.025px;" id="elwgfc0muycq" class="animable"></rect><rect x="231.03" y="430.74" width="7.72" height="2.57" style="fill: rgb(255, 255, 255); stroke: rgb(38, 50, 56); stroke-linecap: round; stroke-linejoin: round; transform-origin: 234.89px 432.025px;" id="el0mh224flsgx" class="animable"></rect><rect x="241.32" y="430.74" width="7.72" height="2.57" style="fill: rgb(255, 255, 255); stroke: rgb(38, 50, 56); stroke-linecap: round; stroke-linejoin: round; transform-origin: 245.18px 432.025px;" id="elwzndtsd6l9i" class="animable"></rect><rect x="251.6" y="430.74" width="7.72" height="2.57" style="fill: rgb(255, 255, 255); stroke: rgb(38, 50, 56); stroke-linecap: round; stroke-linejoin: round; transform-origin: 255.46px 432.025px;" id="eljprkd122ge" class="animable"></rect><rect x="261.89" y="430.74" width="7.72" height="2.57" style="fill: rgb(255, 255, 255); stroke: rgb(38, 50, 56); stroke-linecap: round; stroke-linejoin: round; transform-origin: 265.75px 432.025px;" id="el1ysjypnqmvi" class="animable"></rect><rect x="272.18" y="430.74" width="7.72" height="2.57" style="fill: rgb(255, 255, 255); stroke: rgb(38, 50, 56); stroke-linecap: round; stroke-linejoin: round; transform-origin: 276.04px 432.025px;" id="elsgm5yvu01v" class="animable"></rect><rect x="282.47" y="430.74" width="7.72" height="2.57" style="fill: rgb(255, 255, 255); stroke: rgb(38, 50, 56); stroke-linecap: round; stroke-linejoin: round; transform-origin: 286.33px 432.025px;" id="elnf5w5h6xutn" class="animable"></rect><rect x="292.76" y="430.74" width="7.72" height="2.57" style="fill: rgb(255, 255, 255); stroke: rgb(38, 50, 56); stroke-linecap: round; stroke-linejoin: round; transform-origin: 296.62px 432.025px;" id="elnoxqwzpifcp" class="animable"></rect><rect x="303.05" y="430.74" width="7.72" height="2.57" style="fill: rgb(255, 255, 255); stroke: rgb(38, 50, 56); stroke-linecap: round; stroke-linejoin: round; transform-origin: 306.91px 432.025px;" id="el4yqk3nuo1hh" class="animable"></rect><rect x="313.34" y="430.74" width="7.72" height="2.57" style="fill: rgb(255, 255, 255); stroke: rgb(38, 50, 56); stroke-linecap: round; stroke-linejoin: round; transform-origin: 317.2px 432.025px;" id="el16nyo1z4fuc" class="animable"></rect><rect x="103.57" y="433.68" width="223.1" height="8.32" style="fill: rgb(255, 255, 255); stroke: rgb(38, 50, 56); stroke-linecap: round; stroke-linejoin: round; transform-origin: 215.12px 437.84px;" id="el8eqax8hpibp" class="animable"></rect><rect x="272.25" y="433.68" width="54.42" height="8.32" style="fill: rgb(38, 50, 56); stroke: rgb(38, 50, 56); stroke-linecap: round; stroke-linejoin: round; transform-origin: 299.46px 437.84px;" id="elyfppa3un0g" class="animable"></rect></g><g id="freepik--Plants--inject-190" class="animable" style="transform-origin: 437.616px 361.124px;"><path d="M429.88,399.42s-26.5-46.53-20.38-58.36,21.73,9.46,21.73,9.46-13.58-43.37-6.11-62.29,20.38,0,21.06,13.4-2.72,36.28-2.72,36.28,5.43-47.32,18.34-33.12-16.3,61.51-16.3,61.51,19.7-11,19,3.15-23.78,26.81-23.78,26.81" style="fill: rgb(146, 227, 169); transform-origin: 436.838px 339.834px;" id="el6qnegpff93b" class="animable"></path><path d="M430.1,390.74s-24.51-22.87-12.57-33.12,18.23,11,18.23,11-13.2-65.45,8.17-67.82,5.66,56.78,5.66,56.78,18.23-25.23,17-4.73-28.29,37.85-28.29,37.85" style="fill: none; stroke: rgb(38, 50, 56); stroke-miterlimit: 10; transform-origin: 440.45px 345.735px;" id="elumeet8eeo" class="animable"></path><line x1="442.14" y1="386.58" x2="425.57" y2="368.63" style="fill: none; stroke: rgb(38, 50, 56); stroke-miterlimit: 10; transform-origin: 433.855px 377.605px;" id="el5xwdu2igvfq" class="animable"></line><line x1="438.69" y1="387.96" x2="443.18" y2="335.49" style="fill: none; stroke: rgb(38, 50, 56); stroke-miterlimit: 10; transform-origin: 440.935px 361.725px;" id="elea9k8f565lb" class="animable"></line><line x1="438" y1="384.16" x2="452.84" y2="364.49" style="fill: none; stroke: rgb(38, 50, 56); stroke-miterlimit: 10; transform-origin: 445.42px 374.325px;" id="elb81l03feh" class="animable"></line><polygon points="456.97 442 459.47 380.5 413.64 380.5 416.14 442 456.97 442" style="fill: rgb(38, 50, 56); transform-origin: 436.555px 411.25px;" id="elxj9t9a5pq7p" class="animable"></polygon></g><g id="freepik--Floor--inject-190" class="animable" style="transform-origin: 256.5px 442px;"><line x1="476" y1="442" x2="37" y2="442" style="fill: none; stroke: rgb(38, 50, 56); stroke-miterlimit: 10; transform-origin: 256.5px 442px;" id="elmtm2z8he6w" class="animable"></line></g><defs>     <filter id="active" height="200%">         <feMorphology in="SourceAlpha" result="DILATED" operator="dilate" radius="2"></feMorphology>                <feFlood flood-color="#32DFEC" flood-opacity="1" result="PINK"></feFlood>        <feComposite in="PINK" in2="DILATED" operator="in" result="OUTLINE"></feComposite>        <feMerge>            <feMergeNode in="OUTLINE"></feMergeNode>            <feMergeNode in="SourceGraphic"></feMergeNode>        </feMerge>    </filter>    <filter id="hover" height="200%">        <feMorphology in="SourceAlpha" result="DILATED" operator="dilate" radius="2"></feMorphology>                <feFlood flood-color="#ff0000" flood-opacity="0.5" result="PINK"></feFlood>        <feComposite in="PINK" in2="DILATED" operator="in" result="OUTLINE"></feComposite>        <feMerge>            <feMergeNode in="OUTLINE"></feMergeNode>            <feMergeNode in="SourceGraphic"></feMergeNode>        </feMerge>            <feColorMatrix type="matrix" values="0   0   0   0   0                0   1   0   0   0                0   0   0   0   0                0   0   0   1   0 "></feColorMatrix>    </filter></defs></svg>